<?xml version="1.0" standalone="no"?>
<!DOCTYPE svg PUBLIC "-//W3C//DTD SVG 20010904//EN"
 "http://www.w3.org/TR/2001/REC-SVG-20010904/DTD/svg10.dtd">
<svg version="1.0" xmlns="http://www.w3.org/2000/svg"
 width="512.000000pt" height="512.000000pt" viewBox="0 0 512.000000 512.000000"
 preserveAspectRatio="xMidYMid meet">
<metadata>
Created by potrace 1.11, written by Peter Selinger 2001-2013
</metadata>
<g transform="translate(0.000000,512.000000) scale(0.100000,-0.100000)"
fill="#000000" stroke="none">
<path d="M2905 5101 c-218 -74 -323 -318 -223 -518 64 -127 181 -202 326 -208
256 -9 440 236 363 483 -34 111 -121 202 -231 241 -58 21 -178 22 -235 2z"/>
<path d="M3099 4116 c-2 -2 -35 -7 -74 -10 -38 -4 -81 -9 -95 -11 -14 -2 -56
-6 -95 -10 -85 -8 -130 -14 -170 -22 -16 -4 -34 -7 -40 -8 -60 -7 -199 -58
-445 -163 l-245 -104 -115 27 c-63 15 -122 28 -130 30 -8 2 -81 20 -162 39
-85 20 -160 32 -179 29 -126 -19 -185 -180 -100 -271 39 -40 63 -50 321 -137
277 -93 358 -114 435 -108 44 3 254 53 535 127 52 14 95 24 96 23 1 -2 29
-125 38 -172 2 -11 16 -76 30 -144 14 -68 25 -125 24 -125 -2 -1 -19 -8 -38
-17 -19 -9 -51 -24 -70 -32 -45 -20 -138 -61 -218 -98 -35 -16 -65 -29 -68
-29 -2 0 -39 -16 -81 -36 -43 -20 -105 -47 -137 -61 -156 -66 -250 -160 -303
-307 -106 -292 -313 -928 -313 -961 1 -157 189 -258 320 -171 46 30 74 73 114
171 16 39 39 95 52 125 13 30 51 123 85 205 63 155 69 168 112 270 14 33 35
85 47 115 39 102 43 107 79 120 20 7 59 23 86 35 221 100 512 215 530 211 12
-3 26 -16 32 -29 12 -26 12 -27 -110 -272 -38 -77 -70 -147 -72 -155 -1 -8 -6
-37 -9 -65 -4 -27 -9 -63 -12 -80 -2 -16 -6 -43 -8 -60 -2 -16 -9 -68 -16
-115 -7 -47 -13 -96 -15 -110 -2 -14 -18 -126 -35 -250 -18 -133 -29 -239 -25
-260 35 -185 280 -238 379 -81 22 34 26 48 41 121 5 20 63 322 91 470 3 14 19
97 35 184 l31 160 181 248 c203 277 236 330 271 438 53 163 54 299 3 520 -9
36 -18 81 -21 100 -3 19 -15 77 -26 129 -11 51 -18 96 -15 99 2 3 24 -3 47
-13 24 -10 57 -23 73 -30 17 -7 89 -37 160 -66 72 -29 136 -57 142 -62 12 -8
73 -116 178 -312 148 -274 171 -307 234 -322 49 -13 79 -10 124 12 58 27 97
98 91 165 -2 21 -73 194 -154 375 -10 22 -30 69 -45 105 -89 214 -137 267
-311 344 -125 56 -218 98 -289 131 -234 107 -390 146 -611 151 -89 1 -163 1
-165 0z"/>
<path d="M620 2307 c-3 -3 -27 -7 -55 -10 -147 -15 -288 -103 -316 -197 -34
-118 -13 -283 57 -427 100 -208 303 -436 577 -647 341 -263 821 -509 1332
-682 135 -46 395 -124 461 -139 10 -2 98 -22 194 -44 96 -22 191 -43 210 -46
31 -5 63 -11 160 -30 14 -3 39 -7 55 -9 17 -3 95 -14 175 -25 269 -38 363 -44
640 -45 201 -1 345 6 382 19 7 2 30 6 51 10 55 7 155 43 204 71 64 37 107 87
128 146 l18 53 -28 70 c-23 58 -84 166 -105 185 -3 3 -23 27 -45 55 -187 232
-566 518 -949 715 -137 71 -381 180 -402 180 -7 0 -85 -195 -88 -219 -1 -2 44
-23 99 -46 269 -112 574 -284 760 -428 28 -21 66 -51 85 -65 96 -74 228 -198
305 -287 36 -42 95 -131 95 -144 0 -23 -141 -58 -270 -68 -155 -12 -486 -6
-635 12 -16 2 -55 7 -85 10 -30 3 -66 8 -80 10 -14 2 -47 6 -73 10 -27 4 -56
8 -65 9 -10 2 -39 7 -65 10 -27 4 -59 9 -70 12 -12 2 -58 11 -102 19 -1001
183 -1916 604 -2406 1106 -193 197 -305 397 -293 523 4 49 7 52 63 71 83 27
321 23 486 -10 63 -12 251 -55 282 -64 33 -10 39 -4 49 44 2 11 15 54 28 95
14 41 22 78 18 82 -11 10 -222 62 -344 83 -145 26 -423 46 -438 32z"/>
</g>
</svg>
