<svg width="512" height="115" viewBox="0 0 512 115" fill="none" xmlns="http://www.w3.org/2000/svg">
<path d="M134.436 31.4648C134.436 31.4648 133.438 31.4648 131.441 31.4648C130.484 31.4648 129.486 31.4375 128.447 31.3828L127.545 82.8164C128.42 82.7617 129.309 82.7344 130.211 82.7344C131.141 82.7344 132.07 82.707 133 82.6523L134.436 31.4648ZM165.607 66.3281L162.162 85.8105C162.08 86.3574 161.834 86.7812 161.424 87.082C161.014 87.4102 160.549 87.5742 160.029 87.5742H159.783C155.299 87.1367 148.217 86.918 138.537 86.918C128.803 86.918 121.803 87.1367 117.537 87.5742H117.373C116.088 87.5742 115.363 86.877 115.199 85.4824C115.199 84.9355 115.377 84.457 115.732 84.0469C116.115 83.6367 116.635 83.3906 117.291 83.3086C117.975 83.2266 118.822 83.1582 119.834 83.1035C120.873 83.0488 122.008 82.9805 123.238 82.8984L124.182 31.0547C121.83 30.8906 119.451 30.6445 117.045 30.3164C116.498 30.2344 116.047 29.9883 115.691 29.5781C115.363 29.168 115.213 28.6621 115.24 28.0605C115.295 27.4316 115.527 26.9395 115.938 26.584C116.348 26.2012 116.826 26.0098 117.373 26.0098H117.619C122.814 26.8027 127.914 27.1992 132.918 27.1992C137.922 27.1992 141.791 27.0625 144.525 26.7891H144.689C145.318 26.7891 145.838 27.0078 146.248 27.4453C146.658 27.8555 146.863 28.3477 146.863 28.9219C146.863 29.4961 146.672 29.9883 146.289 30.3984C145.906 30.7812 145.318 31 144.525 31.0547C142.885 31.2188 140.943 31.3555 138.701 31.4648L137.348 82.6523H138.537C146.877 82.6523 153.453 82.8164 158.266 83.1445L161.301 66C161.383 65.4531 161.629 65.0156 162.039 64.6875C162.449 64.332 162.928 64.1543 163.475 64.1543C164.021 64.1543 164.514 64.3867 164.951 64.8516C165.389 65.2891 165.607 65.7812 165.607 66.3281ZM185.459 50.291C178.268 52.8887 174.672 58.3438 174.672 66.6562C174.672 71.8789 176.477 76.2539 180.086 79.7812C181.207 80.875 182.492 81.791 183.941 82.5293C181.59 79.0293 180.414 74.2441 180.414 68.1738C180.414 63.8809 180.729 60.6816 181.357 58.5762C182.342 55.2402 183.709 52.4785 185.459 50.291ZM184.762 66.4102C187.824 67.3672 191.338 67.8457 195.303 67.8457C199.268 67.8457 203.123 67.0117 206.869 65.3438V64.6465C206.869 58.0293 204.75 53.4629 200.512 50.9473C199.035 50.0723 197.258 49.4844 195.18 49.1836C188.508 49.9492 185.035 55.6914 184.762 66.4102ZM211.135 64.5645L211.053 66.9434C210.779 69.2129 207.17 70.8262 200.225 71.7832C198.01 72.084 195.658 72.2344 193.17 72.2344C190.709 72.2344 187.934 71.8105 184.844 70.9629C185.445 77.1699 187.523 81.3672 191.078 83.5547C192.391 84.3477 193.676 84.7441 194.934 84.7441C196.219 84.7441 197.299 84.6621 198.174 84.498C199.049 84.3066 199.91 84.0469 200.758 83.7188C202.672 82.9258 204.012 81.9688 204.777 80.8477C205.242 80.3008 205.775 80.0273 206.377 80.0273C207.006 80.0273 207.539 80.2598 207.977 80.7246C208.414 81.1621 208.633 81.668 208.633 82.2422C208.633 82.7891 208.455 83.2266 208.1 83.5547C206.924 85.3867 204.736 86.8359 201.537 87.9023C195.604 89.8438 189.902 89.6797 184.434 87.4102C178.691 85.0586 174.617 81.0938 172.211 75.5156C171.008 72.7812 170.406 69.7598 170.406 66.4512C170.406 63.1152 170.926 60.0938 171.965 57.3867C173.004 54.6523 174.48 52.3555 176.395 50.4961C180.305 46.668 185.705 44.7539 192.596 44.7539C204.955 45.2734 211.135 51.877 211.135 64.5645ZM245.301 72.6445C245.191 71.7148 245.137 70.7305 245.137 69.6914H243.619C239.135 69.6914 234.732 70.5117 230.412 72.1523C224.889 74.2305 222.127 77.1973 222.127 81.0527C222.127 82.4746 222.77 83.582 224.055 84.375C225.121 85.0039 226.516 85.3184 228.238 85.3184C229.961 85.3184 231.684 84.9492 233.406 84.2109C235.156 83.4453 236.77 82.4609 238.246 81.2578C240.871 79.0703 243.223 76.1992 245.301 72.6445ZM255.186 82.8164C255.268 81.9961 255.309 80.3555 255.309 77.8945C255.309 75.4336 255.254 73.0957 255.145 70.8809C255.062 68.6387 254.857 66.4785 254.529 64.4004C254.201 62.3223 253.709 60.3672 253.053 58.5352C252.396 56.7031 251.508 55.1172 250.387 53.7773C247.898 50.8242 244.439 49.3477 240.01 49.3477C239.928 49.3477 239.859 49.375 239.805 49.4297C239.75 49.457 239.682 49.4707 239.6 49.4707H239.764C244.166 51.8496 247.023 55.8008 248.336 61.3242C249.074 64.3594 249.471 67.2441 249.525 69.9785C249.607 72.6855 249.648 74.8184 249.648 76.377C249.648 78.8379 249.539 81.3125 249.32 83.8008C251.289 83.3906 253.244 83.0625 255.186 82.8164ZM262.076 82.3652L265.029 82.4473C265.631 82.502 266.109 82.7344 266.465 83.1445C266.848 83.5547 267.039 84.0605 267.039 84.6621C267.039 85.2363 266.834 85.7422 266.424 86.1797C266.041 86.6172 265.549 86.8359 264.947 86.8359H264.783C264.318 86.7812 263.84 86.7539 263.348 86.7539H261.912C256.908 86.7539 252.068 87.4238 247.393 88.7637L246.818 88.8457C246.189 88.8457 245.67 88.5996 245.26 88.1074C244.877 87.6426 244.686 87.1641 244.686 86.6719V86.3438C244.686 86.2891 244.754 85.7422 244.891 84.7031C245.027 83.6367 245.164 82.1602 245.301 80.2734C239.75 86.4805 233.98 89.584 227.992 89.584C225.23 89.584 222.879 88.8184 220.938 87.2871C218.859 85.6738 217.82 83.7188 217.82 81.4219C217.82 79.125 218.258 77.1973 219.133 75.6387C220.035 74.0801 221.211 72.7266 222.66 71.5781C224.109 70.4023 225.75 69.4316 227.582 68.666C229.441 67.873 231.328 67.2305 233.242 66.7383C236.797 65.8633 240.256 65.4258 243.619 65.4258H244.604C244.604 61.9531 243.496 58.918 241.281 56.3203C238.93 53.5859 236.072 52.2188 232.709 52.2188C230.193 52.2188 227.842 53.5039 225.654 56.0742C223.521 58.5625 222.455 61.1738 222.455 63.9082C222.455 64.4551 222.223 64.9199 221.758 65.3027C221.32 65.6582 220.814 65.8359 220.24 65.8359C219.666 65.8359 219.16 65.6172 218.723 65.1797C218.285 64.7148 218.066 64.0176 218.066 63.0879C218.066 62.1582 218.299 60.9824 218.764 59.5605C219.229 58.1113 219.898 56.7031 220.773 55.3359C221.676 53.9414 222.756 52.6289 224.014 51.3984C225.299 50.168 226.762 49.0742 228.402 48.1172C231.902 46.0938 235.457 45.082 239.066 45.082C242.703 45.082 245.602 45.5605 247.762 46.5176C249.949 47.4746 251.768 48.7734 253.217 50.4141C254.693 52.0547 255.855 53.9551 256.703 56.1152C257.551 58.2754 258.193 60.5586 258.631 62.9648C259.314 66.7383 259.656 71.5645 259.656 77.4434L259.574 82.4473L262.076 82.3652ZM285.988 51.3984C284.949 51.5625 283.062 51.6445 280.328 51.6445H280V81.791C280.52 81.7363 281.025 81.709 281.518 81.709C281.518 81.709 283.008 81.709 285.988 81.709V51.3984ZM308.916 60.5039C309.08 60.1484 309.162 59.6562 309.162 59.0273C309.162 58.3984 308.861 57.7969 308.26 57.2227C307.686 56.6211 306.975 56.3203 306.127 56.3203C305.279 56.3203 304.555 56.6211 303.953 57.2227C303.379 57.7969 303.092 58.3984 303.092 59.0273C303.092 59.6562 303.174 60.1484 303.338 60.5039C303.502 60.8594 303.721 61.1875 303.994 61.4883C304.568 62.0898 305.279 62.3906 306.127 62.3906C307.412 62.3906 308.342 61.7617 308.916 60.5039ZM290.336 51.8086C293.07 48.0078 296.68 46.1074 301.164 46.1074C304.883 46.2168 307.891 47.3516 310.188 49.5117C312.539 51.6719 313.715 54.502 313.715 58.002C313.715 60.3262 313.031 62.3359 311.664 64.0312C310.242 65.7812 308.396 66.6562 306.127 66.6562C304.104 66.6562 302.381 65.9453 300.959 64.5234C299.537 63.1016 298.826 61.3789 298.826 59.3555C298.826 57.3594 299.537 55.6367 300.959 54.1875C302.381 52.7109 304.104 51.9727 306.127 51.9727C306.264 51.9727 306.387 51.9863 306.496 52.0137C306.633 52.041 306.77 52.0547 306.906 52.0547C305.457 50.9336 303.748 50.373 301.779 50.373C299.811 50.373 298.252 50.7012 297.104 51.3574C295.955 51.9863 294.971 52.793 294.15 53.7773C293.357 54.7344 292.715 55.7871 292.223 56.9355C291.73 58.0566 291.348 59.1094 291.074 60.0938C290.582 61.7617 290.336 63.0332 290.336 63.9082L290.254 82.1191C291.211 82.2012 292.168 82.3242 293.125 82.4883C294.109 82.6523 294.984 82.8164 295.75 82.9805C297.172 83.2539 297.883 83.9785 297.883 85.1543C297.883 85.7559 297.65 86.2617 297.186 86.6719C296.721 87.0547 296.229 87.2461 295.709 87.2461H295.299C290.732 86.3984 286.645 85.9746 283.035 85.9746C279.48 85.9746 275.42 86.3984 270.854 87.2461H270.443C269.814 87.2461 269.309 87.041 268.926 86.6309C268.543 86.1934 268.352 85.7148 268.352 85.1953C268.352 84.0195 268.912 83.2812 270.033 82.9805C270.99 82.8164 271.947 82.6523 272.904 82.4883C273.861 82.3242 274.805 82.2012 275.734 82.1191V51.5625C272.125 51.3984 270.02 51.1934 269.418 50.9473C268.871 50.8926 268.42 50.6738 268.064 50.291C267.736 49.8809 267.572 49.375 267.572 48.7734C267.572 48.1445 267.805 47.6387 268.27 47.2559C268.762 46.873 269.254 46.6816 269.746 46.6816H270.033C270.225 46.873 271.674 47.0371 274.381 47.1738C277.115 47.2832 279.125 47.3379 280.41 47.3379C283.445 47.3379 285.441 47.2285 286.398 47.0098C287.355 46.791 288.039 46.6816 288.449 46.6816C288.887 46.6816 289.311 46.9141 289.721 47.3789C290.131 47.8164 290.336 48.3086 290.336 48.8555V51.8086ZM337.545 84.6621C335.686 83.0488 334.756 81.0254 334.756 78.5918V31.5469L328.891 33.2285V73.7109C328.891 79.6719 330.723 83.1719 334.387 84.2109C335.426 84.4844 336.479 84.6348 337.545 84.6621ZM339.062 45.5742C342.453 45.4648 345.857 45.2734 349.275 45H349.439C350.041 45 350.547 45.2188 350.957 45.6562C351.367 46.0664 351.572 46.5449 351.572 47.0918C351.572 47.6387 351.381 48.1309 350.998 48.5684C350.643 48.9785 350.191 49.2109 349.645 49.2656C345.461 49.5938 341.934 49.7988 339.062 49.8809V78.5918C339.062 80.2324 339.896 81.3945 341.564 82.0781C342.029 82.2695 342.562 82.3652 343.164 82.3652C343.793 82.3652 344.34 82.1738 344.805 81.791C345.297 81.3809 345.707 80.875 346.035 80.2734C346.473 79.4805 346.828 78.5508 347.102 77.4844C347.512 75.8164 348.291 74.9824 349.439 74.9824C350.068 74.9824 350.574 75.2285 350.957 75.7207C351.367 76.1855 351.572 76.6641 351.572 77.1562V77.6074C350.779 81.2441 349.221 84.0605 346.896 86.0566C344.572 88.0254 341.701 89.0098 338.283 89.0098C332.104 89.0098 327.934 86.4805 325.773 81.4219C324.926 79.4531 324.502 76.8828 324.502 73.7109V49.7988C323.271 49.7168 322.027 49.6348 320.77 49.5527C319.539 49.4707 318.473 49.375 317.57 49.2656C315.93 49.1016 315.109 48.377 315.109 47.0918C315.109 46.4629 315.342 45.957 315.807 45.5742C316.299 45.1914 316.791 45 317.283 45H317.447L324.502 45.4922V31.5469C324.502 31.082 324.652 30.6582 324.953 30.2754C325.254 29.8652 325.637 29.5918 326.102 29.4551L336.355 26.707C336.465 26.625 336.738 26.584 337.176 26.584C337.641 26.584 338.064 26.8164 338.447 27.2812C338.857 27.7461 339.062 28.252 339.062 28.7988V45.5742ZM373.639 51.2344C372.244 51.4531 370.371 51.5625 368.02 51.5625H367.691V82.4473C368.211 82.3926 368.717 82.3652 369.209 82.3652C370.193 82.3652 371.055 82.3652 371.793 82.3652C372.531 82.3652 373.146 82.3926 373.639 82.4473V51.2344ZM373.146 34.0898C373.146 33.2422 372.846 32.5312 372.244 31.957C371.67 31.3555 370.959 31.0547 370.111 31.0547C369.264 31.0547 368.553 31.3555 367.979 31.957C367.404 32.5312 367.117 33.2422 367.117 34.0898C367.117 34.9375 367.404 35.6484 367.979 36.2227C368.553 36.7969 369.264 37.084 370.111 37.084C370.959 37.084 371.67 36.7969 372.244 36.2227C372.846 35.6484 373.146 34.9375 373.146 34.0898ZM383.4 88.0254C378.889 87.123 374.678 86.6719 370.768 86.6719C366.857 86.6719 362.646 87.123 358.135 88.0254C357.506 88.0254 356.986 87.793 356.576 87.3281C356.193 86.8633 356.002 86.3711 356.002 85.8516C356.002 85.332 356.152 84.8672 356.453 84.457C356.781 84.0469 357.301 83.7734 358.012 83.6367C358.75 83.4727 359.598 83.3359 360.555 83.2266C361.539 83.0898 362.496 82.9531 363.426 82.8164V51.3984L357.109 50.8652C356.562 50.7832 356.111 50.5371 355.756 50.127C355.428 49.7168 355.264 49.2109 355.264 48.6094C355.264 47.9805 355.51 47.4883 356.002 47.1328C356.494 46.7773 356.973 46.5996 357.438 46.5996H357.684C357.711 46.5996 358.025 46.6406 358.627 46.7227C359.229 46.7773 360.008 46.8457 360.965 46.9277C363.562 47.1465 365.941 47.2559 368.102 47.2559C371.109 47.2559 373.543 47.0371 375.402 46.5996H375.854C376.482 46.5996 377.002 46.8184 377.412 47.2559C377.822 47.666 378.027 48.1445 378.027 48.6914L377.945 82.8164C378.902 82.9531 379.859 83.0898 380.816 83.2266C381.801 83.3359 382.676 83.4727 383.441 83.6367C384.863 83.9102 385.574 84.6348 385.574 85.8105C385.574 86.4395 385.342 86.959 384.877 87.3691C384.412 87.8066 383.92 88.0254 383.4 88.0254ZM377.453 34.0898C377.453 36.1406 376.742 37.8633 375.32 39.2578C373.844 40.6797 372.107 41.3906 370.111 41.3906C368.088 41.3906 366.365 40.6797 364.943 39.2578C363.521 37.8359 362.811 36.1133 362.811 34.0898C362.811 32.0664 363.521 30.3438 364.943 28.9219C366.365 27.5 368.088 26.7891 370.111 26.7891C372.107 26.7891 373.844 27.5 375.32 28.9219C376.742 30.3164 377.453 32.0391 377.453 34.0898ZM405.385 84.0469C401.748 80.2461 399.93 74.9004 399.93 68.0098C399.93 63.6895 400.641 59.5469 402.062 55.582C403.457 51.7812 405.043 49.293 406.82 48.1172C398.125 50.25 393.777 56.7168 393.777 67.5176C393.777 73.8887 395.992 78.6191 400.422 81.709C401.871 82.7207 403.525 83.5 405.385 84.0469ZM429.338 59.7656C429.256 60.3125 428.996 60.7637 428.559 61.1191C428.148 61.4746 427.67 61.6523 427.123 61.6523C426.576 61.6523 426.098 61.4609 425.688 61.0781C425.305 60.6953 425.1 60.0664 425.072 59.1914C425.045 58.2891 424.785 57.1953 424.293 55.9102C423.801 54.625 423.131 53.4492 422.283 52.3828C420.314 49.9219 418.182 48.6914 415.885 48.6914C413.068 48.6914 410.689 49.8672 408.748 52.2188C406.424 55.0352 404.988 59.0684 404.441 64.3184C404.277 65.7129 404.195 67.1758 404.195 68.707C404.195 70.2109 404.4 71.9199 404.811 73.834C405.248 75.748 405.904 77.457 406.779 78.9609C408.748 82.4062 411.496 84.1289 415.023 84.1289C417.648 84.1289 420.055 83.0078 422.242 80.7656C424.238 78.7148 425.564 76.4316 426.221 73.916C426.521 72.7402 427.219 72.1523 428.312 72.1523C428.914 72.1523 429.42 72.3848 429.83 72.8496C430.268 73.2871 430.486 73.6836 430.486 74.0391C430.486 74.3945 430.418 74.832 430.281 75.3516C430.172 75.8438 429.885 76.623 429.42 77.6895C428.955 78.7559 428.34 79.8223 427.574 80.8887C426.836 81.9551 425.934 82.9941 424.867 84.0059C423.801 84.9902 422.584 85.8652 421.217 86.6309C418.182 88.3262 414.955 89.1738 411.537 89.1738C408.146 89.1738 405.125 88.6406 402.473 87.5742C399.82 86.5352 397.537 85.0586 395.623 83.1445C391.549 79.125 389.512 73.916 389.512 67.5176C389.512 60.4082 391.371 54.6523 395.09 50.25C398.973 45.6289 404.277 43.3184 411.004 43.3184C414.121 43.3184 417.02 43.9473 419.699 45.2051C422.379 46.4355 424.58 48.2949 426.303 50.7832L427.656 42.416C427.738 41.8965 427.971 41.4727 428.354 41.1445C428.764 40.8164 429.27 40.6523 429.871 40.6523C430.473 40.6523 430.965 40.8848 431.348 41.3496C431.73 41.8145 431.922 42.2793 431.922 42.7441V43.0723L429.338 59.7656ZM452.758 32.4902C450.98 32.6543 449.107 32.7363 447.139 32.7363H446.811V82.2832H452.758V32.4902ZM442.545 32.6543L437.5 32.0801C436.953 31.998 436.502 31.752 436.146 31.3418C435.818 30.9316 435.654 30.4258 435.654 29.8242C435.654 29.1953 435.9 28.7031 436.393 28.3477C436.885 27.9648 437.363 27.7734 437.828 27.7734H438.074C438.102 27.7734 438.348 27.8145 438.812 27.8965C439.277 27.9512 439.906 28.0195 440.699 28.1016C442.668 28.3477 444.842 28.4707 447.221 28.4707C450.146 28.4707 452.115 28.3613 453.127 28.1426C454.139 27.8965 454.85 27.7734 455.26 27.7734C455.697 27.7734 456.121 28.0059 456.531 28.4707C456.941 28.9082 457.146 29.4004 457.146 29.9473L457.064 82.7344C457.83 82.8164 458.432 82.8984 458.869 82.9805C459.334 83.0352 459.717 83.0898 460.018 83.1445C460.346 83.1719 460.756 83.2402 461.248 83.3496C461.768 83.459 462.191 83.7051 462.52 84.0879C462.848 84.4707 463.012 84.9492 463.012 85.5234C463.012 86.0703 462.779 86.5488 462.314 86.959C461.877 87.3691 461.385 87.5742 460.838 87.5742H460.428C452.854 86.2344 445.375 86.2617 437.992 87.6562H437.582C436.898 87.6562 436.379 87.4375 436.023 87C435.668 86.5898 435.49 86.1113 435.49 85.5645C435.49 84.416 436.051 83.6914 437.172 83.3906C438.812 83.1172 440.604 82.8984 442.545 82.7344V32.6543ZM483.068 50.291C475.877 52.8887 472.281 58.3438 472.281 66.6562C472.281 71.8789 474.086 76.2539 477.695 79.7812C478.816 80.875 480.102 81.791 481.551 82.5293C479.199 79.0293 478.023 74.2441 478.023 68.1738C478.023 63.8809 478.338 60.6816 478.967 58.5762C479.951 55.2402 481.318 52.4785 483.068 50.291ZM482.371 66.4102C485.434 67.3672 488.947 67.8457 492.912 67.8457C496.877 67.8457 500.732 67.0117 504.479 65.3438V64.6465C504.479 58.0293 502.359 53.4629 498.121 50.9473C496.645 50.0723 494.867 49.4844 492.789 49.1836C486.117 49.9492 482.645 55.6914 482.371 66.4102ZM508.744 64.5645L508.662 66.9434C508.389 69.2129 504.779 70.8262 497.834 71.7832C495.619 72.084 493.268 72.2344 490.779 72.2344C488.318 72.2344 485.543 71.8105 482.453 70.9629C483.055 77.1699 485.133 81.3672 488.688 83.5547C490 84.3477 491.285 84.7441 492.543 84.7441C493.828 84.7441 494.908 84.6621 495.783 84.498C496.658 84.3066 497.52 84.0469 498.367 83.7188C500.281 82.9258 501.621 81.9688 502.387 80.8477C502.852 80.3008 503.385 80.0273 503.986 80.0273C504.615 80.0273 505.148 80.2598 505.586 80.7246C506.023 81.1621 506.242 81.668 506.242 82.2422C506.242 82.7891 506.064 83.2266 505.709 83.5547C504.533 85.3867 502.346 86.8359 499.146 87.9023C493.213 89.8438 487.512 89.6797 482.043 87.4102C476.301 85.0586 472.227 81.0938 469.82 75.5156C468.617 72.7812 468.016 69.7598 468.016 66.4512C468.016 63.1152 468.535 60.0938 469.574 57.3867C470.613 54.6523 472.09 52.3555 474.004 50.4961C477.914 46.668 483.314 44.7539 490.205 44.7539C502.564 45.2734 508.744 51.877 508.744 64.5645Z" fill="white"/>
<path d="M27.5379 65.1605C27.4934 65.1463 25.6635 64.5898 23.0685 64.0281C20.4701 63.4701 17.1228 62.8976 13.9268 62.892C12.3252 62.8957 10.7541 63.033 9.27382 63.4611C7.80781 63.8873 6.34902 64.6363 5.31484 66.006L5.08281 66.3146L4.96152 66.6802C4.65468 67.6006 4.51035 68.5705 4.51035 69.5513C4.51738 72.025 5.38964 74.5431 6.89824 77.0863C9.17382 80.8992 12.9389 84.8246 18.1125 88.6394C23.2881 92.4488 29.8812 96.1297 37.8353 99.3113C52.2098 105.047 69.1844 107.987 80.7568 108C84.4022 107.995 87.509 107.715 89.9826 107.049C91.2203 106.709 92.3152 106.279 93.2766 105.61C93.7563 105.275 94.2039 104.872 94.5785 104.367C94.9529 103.866 95.2438 103.253 95.3738 102.595L95.4898 102.015L95.3203 101.446C94.6856 99.3843 93.3605 97.4152 91.5645 95.3502C88.8645 92.2736 85.0371 89.0564 80.5428 86.0818C76.0504 83.1123 70.8963 80.3998 65.5568 78.4416L63.923 82.9002C70.5022 85.3078 76.951 89.0494 81.891 92.8785C84.3609 94.7885 86.4566 96.7234 87.9938 98.4803C89.5363 100.224 90.4941 101.831 90.7723 102.81L93.0461 102.129L90.7188 101.663L91.1324 101.745L90.7473 101.571L90.7188 101.663L91.1324 101.745L90.7473 101.571L90.9096 101.644L90.7633 101.539L90.7473 101.571L90.9096 101.644L90.7633 101.539C90.767 101.546 90.5777 101.755 90.107 101.978C89.4098 102.32 88.1666 102.675 86.5633 102.9C84.9564 103.13 82.9857 103.253 80.7564 103.251C69.9596 103.265 53.265 100.385 39.5969 94.9029C29.4385 90.842 21.7092 85.9572 16.6156 81.2935C14.0689 78.9644 12.1857 76.6906 10.9783 74.6574C9.7621 72.6244 9.25019 70.8515 9.25722 69.5515C9.25722 69.0308 9.33222 68.5832 9.46601 68.1818L7.21367 67.431L9.11288 68.856C9.29472 68.6027 9.73886 68.2693 10.5984 68.0197C11.442 67.7717 12.6207 67.6381 13.9264 67.6416C16.5463 67.6381 19.66 68.1463 22.0658 68.6689C23.2715 68.9293 24.3041 69.1916 25.0299 69.3859C25.3935 69.484 25.6789 69.5644 25.8717 69.6195L26.0893 69.6838L26.1535 69.7017L27.5379 65.1605Z" fill="white"/>
<path d="M58.9297 22.6098C62.9641 22.6098 66.2346 19.3393 66.2346 15.3049C66.2346 11.2705 62.9641 8 58.9297 8C54.8953 8 51.6248 11.2705 51.6248 15.3049C51.6248 19.3393 54.8953 22.6098 58.9297 22.6098Z" fill="white"/>
<path d="M91.0133 48.2002L86.3406 37.3908C85.5453 35.7092 84.1721 34.3679 82.4707 33.6135L73.7818 29.7541C69.6371 27.9136 65.0787 27.1951 60.5666 27.6693L53.9644 28.3648C51.407 28.6342 48.8996 29.2832 46.5348 30.2927L37.7779 34.0218L27.5125 31.589C25.7326 31.2271 23.9957 32.3775 23.6355 34.1574C23.2719 35.9373 24.4309 37.4869 26.2035 38.0343L35.7697 41.2429C37.5783 41.7939 39.5041 41.8152 41.3232 41.3L51.4994 38.6677L53.3256 47.3424L41.0307 52.7996C38.3947 53.7734 36.3402 55.8832 35.4342 58.5441L29.4562 76.1429C28.7965 78.3135 30.0197 80.6105 32.192 81.272C34.3642 81.9318 36.408 80.8191 37.3211 78.5363L44.3976 61.4154L56.4607 56.3254C56.8601 56.1578 57.3203 56.2541 57.6164 56.5679C57.9125 56.8816 57.9838 57.3453 57.7949 57.7342L54.2137 65.0677L51.8168 82.2884C51.4957 84.5355 53.0547 86.6185 55.3016 86.9416C57.5486 87.2627 59.3857 86.0695 59.9527 83.4549L63.1164 66.8941L69.7578 57.8484C72.3617 54.3066 73.3391 49.8283 72.4543 45.5232L70.6494 36.7615L79.1705 40.2623L85.0236 50.9183C85.7764 52.575 87.7236 53.3062 89.3789 52.5537C91.0347 51.8008 91.7658 49.8533 91.0133 48.2002Z" fill="white"/>
</svg>
